# xmcd CD database file
#
# Track frame offsets:
#	150
#	13226
#	30984
#	45994
#	63300
#	81208
#	95145
#	109454
#	128999
#	144092
#	159784
#	190959
#
# Disc length: 2802 seconds
#
# Revision: 0
# Processed by: cddbd v1.5.1PL0 Copyright (c) Steve Scherf et al.
# Submitted via: Feurio! 1.67 - http://www.feurio.com
#
DISCID=970af00c
DTITLE=The Dusty Brothers and Friends - LIVE at Weidefestival Schönbronn
DYEAR=1900
DGENRE=folk
TTITLE0=Kris Kristofferson - Help Me Make It Through The Night
TTITLE1=Nitty Grittys Dirt Band - Will The Circle Be Unbroken
TTITLE2=Johnny Cash - Folsom Prison Blues
TTITLE3=CCR - Lodi
TTITLE4=Brooks and Dunn - Neon Moon
TTITLE5=Alan Jackson - Thank God For The Radio
TTITLE6=Alan Jackson - Chaisin' That Neon Rainbow
TTITLE7=Jimmy Buffett - Margaritaville
TTITLE8=Brooks and Dunn - Boot Scootin' Boogie
TTITLE9=Tim McGraw - I Like It, I Love It
TTITLE10=Lynyrd Skynyrd band - Sweet Home Alabama
TTITLE11=Little Texas - God Bless Texas
EXTD=
EXTT0=
EXTT1=
EXTT2=
EXTT3=
EXTT4=
EXTT5=
EXTT6=
EXTT7=
EXTT8=
EXTT9=
EXTT10=
EXTT11=
PLAYORDER=
